<svg width="15" height="15" viewBox="0 0 15 15" fill="none" xmlns="http://www.w3.org/2000/svg">
<path d="M7.5 14.5313C6.10935 14.5313 4.74992 14.1189 3.59364 13.3463C2.43735 12.5737 1.53613 11.4755 1.00395 10.1907C0.471773 8.90595 0.332531 7.4922 0.603835 6.12827C0.875139 4.76433 1.5448 3.51148 2.52815 2.52814C3.84676 1.20953 5.63519 0.468734 7.5 0.468734C9.36481 0.468734 11.1532 1.20953 12.4719 2.52814C13.7905 3.84676 14.5313 5.63519 14.5313 7.5C14.5313 9.36481 13.7905 11.1532 12.4719 12.4719C11.8205 13.1268 11.0456 13.6461 10.1922 13.9996C9.33879 14.3531 8.42373 14.5338 7.5 14.5313V14.5313ZM7.5 1.40625C4.13991 1.40625 1.40625 4.13991 1.40625 7.5C1.40625 10.8601 4.13991 13.5938 7.5 13.5938C10.8601 13.5938 13.5938 10.8601 13.5938 7.5C13.5938 4.13991 10.8601 1.40625 7.5 1.40625Z" fill="#583672"/>
<path d="M8.34044 11.1127L4.72772 7.5L8.34044 3.88731L9.00331 4.55019L6.05355 7.5L9.00331 10.4498L8.34044 11.1127Z" fill="#583672"/>
</svg>
